<?xml version="1.0" encoding="UTF-8" standalone="no"?>
<svg
   xmlns:dc="http://purl.org/dc/elements/1.1/"
   xmlns:cc="http://creativecommons.org/ns#"
   xmlns:rdf="http://www.w3.org/1999/02/22-rdf-syntax-ns#"
   xmlns:svg="http://www.w3.org/2000/svg"
   xmlns="http://www.w3.org/2000/svg"
   xmlns:sodipodi="http://sodipodi.sourceforge.net/DTD/sodipodi-0.dtd"
   xmlns:inkscape="http://www.inkscape.org/namespaces/inkscape"
   width="32"
   height="32"
   version="1.1"
   viewBox="0 0 32 32"
   id="svg28"
   sodipodi:docname="gimp.svg"
   inkscape:version="1.0.2 (e86c870879, 2021-01-15)">
  <metadata
     id="metadata34">
    <rdf:RDF>
      <cc:Work
         rdf:about="">
        <dc:format>image/svg+xml</dc:format>
        <dc:type
           rdf:resource="http://purl.org/dc/dcmitype/StillImage" />
      </cc:Work>
    </rdf:RDF>
  </metadata>
  <defs
     id="defs32" />
  <sodipodi:namedview
     pagecolor="#ffffff"
     bordercolor="#666666"
     borderopacity="1"
     objecttolerance="10"
     gridtolerance="10"
     guidetolerance="10"
     inkscape:pageopacity="0"
     inkscape:pageshadow="2"
     inkscape:window-width="1920"
     inkscape:window-height="1016"
     id="namedview30"
     showgrid="false"
     inkscape:zoom="26.75"
     inkscape:cx="16"
     inkscape:cy="16"
     inkscape:window-x="0"
     inkscape:window-y="27"
     inkscape:window-maximized="1"
     inkscape:current-layer="svg28" />
  <g
     id="g872"
     transform="matrix(0.79547023,0,0,0.79547023,3.2724762,3.1719109)">
    <path
       style="opacity:0.2;fill-rule:evenodd"
       d="M 30.003987,4.0233581 C 29.755651,3.9838845 29.532545,4.1240161 29.39842,4.2835686 29.264297,4.4432002 29.171234,4.6409633 29.09019,4.8902002 28.950029,5.3214897 28.435296,6.9223849 26.579191,8.5046471 24.723088,10.086991 21.522305,11.857266 15.974781,12.000003 12.601518,12.039474 10.275121,10.590059 8.9300107,7.9283488 8.5943179,7.2640851 8.000004,6.0261908 8.000004,6.8138487 v 1.2178422 l -0.017129,6.3029221 0.03425,0.08297 c 0,0 0.3021971,0.671289 -0.017122,1.575711 -0.3193228,0.904499 -1.4733834,2.224409 -4.2875465,3.069067 l -0.3440371,0.102237 0.065382,0.36229 c 0.1560936,0.877658 0.7782918,1.777184 1.6968304,2.698105 0.9185383,0.920842 2.1483799,1.8525 3.5804678,2.694789 2.8641754,1.68458 6.5326504,3.01579 10.0969194,3.078001 3.564268,0.06237 7.05158,-1.184053 9.359031,-4.636184 2.307452,-3.452053 3.432785,-9.740611 2.510997,-18.321323 h -0.0016 C 30.647175,4.8047002 30.595216,4.6035424 30.502142,4.4272529 30.409067,4.2510423 30.252326,4.0690686 30.003989,4.0297528 Z"
       id="path2" />
    <path
       style="fill:#6c5a42;fill-rule:evenodd"
       d="M 30.003987,3.0233553 C 29.755651,2.9838817 29.532545,3.1240133 29.39842,3.2835658 29.264297,3.4431974 29.171234,3.6409605 29.09019,3.8901974 28.950029,4.3214869 28.435296,5.9223821 26.579191,7.5046443 24.723088,9.0869878 21.522305,10.857263 15.974781,11 12.601518,11.039471 10.275121,9.0902888 8.9300107,6.4285788 8.5943179,5.7643151 8.000004,4.5264208 8.000004,5.3140787 v 1.2178422 l -0.017129,6.8026891 0.03425,0.08297 c 0,0 0.3021971,0.671289 -0.017122,1.575711 C 7.6806802,15.89779 6.5266196,17.2177 3.7124565,18.062358 l -0.3440371,0.102237 0.065382,0.36229 c 0.1560936,0.877658 0.7782918,1.777184 1.6968304,2.698105 0.9185383,0.920842 2.1483799,1.8525 3.5804678,2.694789 2.8641754,1.68458 6.5326504,3.01579 10.0969194,3.078001 3.564268,0.06237 7.05158,-1.184053 9.359031,-4.636184 2.307452,-3.452053 3.432785,-9.740611 2.510997,-18.321322 h -0.0016 C 30.647175,3.8046974 30.595216,3.6035396 30.502142,3.4272501 30.409067,3.2510395 30.252326,3.0690658 30.003989,3.02975 Z"
       id="path4" />
    <path
       style="opacity:0.1;fill:#ffffff;fill-rule:evenodd"
       d="M 30.003906,3.0234373 C 29.75557,2.9839637 29.532562,3.1236504 29.398438,3.2832029 29.264314,3.4428345 29.170888,3.6413879 29.089844,3.8906248 28.949683,4.3219143 28.436183,5.9216438 26.580078,7.503906 24.723975,9.0862498 21.522133,10.857263 15.974609,11 12.601346,11.039471 10.274798,9.0894438 8.9296875,6.4277342 8.5939947,5.7634705 8,4.526795 8,5.3144529 v 1 C 8,5.526795 8.5939947,6.7634705 8.9296875,7.4277342 10.274798,10.089445 12.601346,12.039471 15.974609,12 c 5.547524,-0.142737 8.749366,-1.91375 10.605469,-3.496094 1.856105,-1.5822622 2.369605,-3.1819917 2.509766,-3.6132812 0.08104,-0.2492369 0.17447,-0.4477903 0.308594,-0.6074219 0.134124,-0.1595525 0.357132,-0.2992392 0.605468,-0.2597656 v 0.00586 c 0.248337,0.039316 0.404972,0.2222269 0.498047,0.3984375 0.09307,0.1762895 0.144554,0.3777052 0.173828,0.6132812 h 0.002 c 0.20589,1.9165757 0.295371,3.6990563 0.306641,5.38086 0.03046,-1.9603777 -0.05953,-4.0805324 -0.306641,-6.38086 h -0.002 C 30.646507,3.8054394 30.595027,3.6040237 30.501953,3.4277342 30.408878,3.2515236 30.252243,3.0686125 30.003906,3.0292967 Z M 8,6.5312498 7.9824219,13.333984 7.984375,13.339844 8,7.5312498 Z M 8.074219,14.650391 C 8.0514396,14.76412 8.0436202,14.870593 8,14.994141 7.6806772,15.89864 6.5270537,17.217842 3.7128906,18.0625 l -0.34375,0.101562 0.064453,0.363282 c 0.033379,0.187679 0.097528,0.376731 0.171875,0.566406 L 3.7128906,19.0625 C 6.5270537,18.217842 7.6806772,16.89864 8,15.994141 8.2367923,15.323463 8.1442989,14.885996 8.074219,14.650391 Z"
       id="path6" />
    <path
       style="opacity:0.2;fill-rule:evenodd"
       d="m 17.999259,11.000003 c -0.989559,0 -1.984089,0.32712 -2.741248,1.00016 C 14.500852,12.673202 14,13.698882 14,15.000723 c 0,1.30184 0.500852,2.32608 1.258011,2.99912 0.757159,0.67304 1.751689,1.00016 2.741248,1.00016 0.989559,0 1.98409,-0.32712 2.741249,-1.00016 C 21.497668,17.326803 22,16.302563 22,15.000723 c 0,-1.301841 -0.502332,-2.327521 -1.259492,-3.00056 -0.757159,-0.67304 -1.75169,-1.00016 -2.741249,-1.00016 z"
       id="path8" />
    <path
       style="opacity:0.2;fill-rule:evenodd"
       d="m 10.999259,11.000003 c -0.989559,0 -1.984089,0.32712 -2.741248,1.00016 C 7.500852,12.673202 7,13.698882 7,15.000723 c 0,1.30184 0.500852,2.32608 1.258011,2.99912 0.757159,0.67304 1.751689,1.00016 2.741248,1.00016 0.989559,0 1.98409,-0.32712 2.741249,-1.00016 C 14.497668,17.326803 15,16.302563 15,15.000723 c 0,-1.301841 -0.502332,-2.327521 -1.259492,-3.00056 -0.757159,-0.67304 -1.75169,-1.00016 -2.741249,-1.00016 z"
       id="path10" />
    <path
       style="fill:#ffffff;fill-rule:evenodd"
       d="M 10.999259,9.9999998 C 10.0097,9.9999998 9.01517,10.32712 8.258011,11.00016 7.500852,11.673199 7,12.698879 7,14.00072 7,15.30256 7.500852,16.3268 8.258011,16.99984 9.01517,17.67288 10.0097,18 10.999259,18 c 0.989559,0 1.98409,-0.32712 2.741249,-1.00016 C 14.497668,16.3268 15,15.30256 15,14.00072 15,12.698879 14.497668,11.673199 13.740508,11.00016 12.983349,10.32712 11.988818,9.9999998 10.999259,9.9999998 Z"
       id="path12" />
    <path
       style="fill:#3f3f3f;fill-rule:evenodd"
       d="m 12.000001,13 c -0.490073,0 -0.98551,0.161999 -1.367188,0.50128 C 10.251137,13.84056 10,14.363121 10,15.000001 c 0,0.636881 0.251137,1.15944 0.632813,1.498721 C 11.014491,16.838001 11.509928,17 12.000001,17 c 0.490073,0 0.98551,-0.161999 1.367189,-0.501278 0.381677,-0.339281 0.632811,-0.86184 0.632811,-1.498721 0,-0.63688 -0.251134,-1.159441 -0.632811,-1.498721 C 12.985511,13.161999 12.490074,13 12.000001,13 Z"
       id="path14" />
    <path
       style="opacity:0.3;fill-rule:evenodd"
       d="m 13,21.9992 c 1.443724,0 2.75993,0.08588 3.953778,0 1.983235,-0.145295 3.726517,-0.0014 4.607879,-0.805804 C 21.188847,20.624286 21,20 21,20 c 0,0 1.206289,0.543361 1.788818,1.43209 0.580862,0.88625 -0.636802,1.43225 -0.788818,2.566152 -0.338419,-0.995883 -0.117611,-1.369398 -0.203131,-1.765145 -0.615065,1.005 -1.674478,1.725801 -3.099397,1.765145 C 17.180743,24.039812 15.249892,22.939746 13,22.000799 Z"
       id="path16" />
    <path
       style="opacity:0.2;fill-rule:evenodd"
       d="m 3.9826454,14.000007 c -0.1774894,0 -0.3515443,0.01125 -0.5207339,0.039 -0.451172,0.0735 -0.868902,0.2496 -1.2290438,0.51675 -1.4405666,1.068675 -1.819954,3.49065 -0.040595,6.02685 1.7793597,2.536275 4.1335252,2.929876 5.5740919,1.8612 1.4405667,-1.068676 1.8213547,-3.49065 0.041993,-6.02685 -1.1677033,-1.664401 -2.5832868,-2.405625 -3.8257126,-2.4168 z"
       id="path18" />
    <path
       style="fill:#3f3f3f;fill-rule:evenodd"
       d="m 3.9826454,13.000004 c -0.1774894,0 -0.3515443,0.01125 -0.5207339,0.039 -0.451172,0.0735 -0.868902,0.2496 -1.2290438,0.51675 -1.4405666,1.068675 -1.819954,3.49065 -0.040595,6.02685 1.7793597,2.536275 4.1335252,2.929876 5.5740919,1.8612 1.4405667,-1.068676 1.8213547,-3.49065 0.041993,-6.02685 -1.1677033,-1.664401 -2.5832868,-2.405625 -3.8257126,-2.4168 z"
       id="path20" />
    <path
       style="fill:#ffffff;fill-rule:evenodd"
       d="m 17.999259,9.9999998 c -0.989559,0 -1.984089,0.3271202 -2.741248,1.0001602 C 14.500852,11.673199 14,12.698879 14,14.00072 c 0,1.30184 0.500852,2.32608 1.258011,2.99912 C 16.01517,17.67288 17.0097,18 17.999259,18 c 0.989559,0 1.98409,-0.32712 2.741249,-1.00016 C 21.497668,16.3268 22,15.30256 22,14.00072 22,12.698879 21.497668,11.673199 20.740508,11.00016 19.983349,10.32712 18.988818,9.9999998 17.999259,9.9999998 Z"
       id="path22" />
    <path
       style="fill:#3f3f3f;fill-rule:evenodd"
       d="m 19.000001,13 c -0.490073,0 -0.98551,0.161999 -1.367188,0.50128 C 17.251137,13.84056 17,14.363121 17,15.000001 c 0,0.636881 0.251137,1.15944 0.632813,1.498721 C 18.014491,16.838001 18.509928,17 19.000001,17 c 0.490073,0 0.98551,-0.161999 1.367189,-0.501278 0.381677,-0.339281 0.632811,-0.86184 0.632811,-1.498721 0,-0.63688 -0.251134,-1.159441 -0.632811,-1.498721 C 19.985511,13.161999 19.490074,13 19.000001,13 Z"
       id="path24" />
    <path
       style="opacity:0.1;fill:#ffffff;fill-rule:evenodd"
       d="M 3.9824219,13 C 3.8049325,13 3.6301271,13.01131 3.4609375,13.03906 3.0097655,13.11256 2.5925637,13.289489 2.2324219,13.556639 1.3448623,14.215071 0.8662253,15.38909 1.0410156,16.785156 1.1462661,15.838058 1.5679963,15.04954 2.2324219,14.556641 2.5925637,14.289491 3.0097655,14.112562 3.4609375,14.039062 3.6301271,14.011313 3.8049325,14 3.9824219,14 c 1.2424258,0.01117 2.6584685,0.751615 3.8261719,2.416016 0.6830641,0.9736 1.0417388,1.928988 1.1503906,2.798828 C 9.0823062,18.108502 8.7672691,16.782456 7.8085938,15.416016 6.6408904,13.751615 5.2248477,13.011175 3.9824219,13 Z"
       id="path26" />
  </g>
</svg>
